# xmcd
#
# Track frame offsets:
#	150
#	10113
#	14558
#	22707
#	26940
#	31570
#	36834
#	48166
#	54970
#	68641
#	74026
#	81726
#	88739
#	99016
#	109873
#	118776
#	123453
#	131056
#	142450
#	157908
#	163136
#	173326
#	183581
#	187770
#	192913
#	198254
#	202586
#	208654
#	220176
#	224517
#	229683
#	243771
#	256485
#	272979
#	289106
#	302168
#	316652
#	330102
#
# Disc length: 4626 seconds
#
# Revision: 1
# Processed by: cddbd v1.5.2PL0 Copyright (c) Steve Scherf et al.
# Submitted via: EasyCDDAExtractor 16.0.6.1
#
DISCID=16121026
DTITLE=Χατζής Κώστας - Κώστας Χατζής 1
DYEAR=2013
DGENRE=Έντεχνη
TTITLE0=Χατζής Κώστας - Την ελπίδα μου θα στείλω [Κ. Χατζής-Τόνυ Τσιρμπίνος]
TTITLE1=Χατζής Κώστας - Ήρθανε κι απόψε χίλιες δυό αναμνήσεις Κ. Χατζής-Ούρσ. 
TTITLE1=Γιόρντη Χατζή]
TTITLE2=Χατζής Κώστας - Σε ανάμνηση [Κ. Χατζής-Σώτια Σώτου]
TTITLE3=Χατζής Κώστας - Κι έγινε πίκρα το τραγούδι της χαράς [Κ. Χατζής-Σέβη Τ
TTITLE3=ηλιακού]
TTITLE4=Χατζής Κώστας - Ποτέ δε θα μάθεις [Κ. Χατζής-Ηλ. Λυμπερόπουλος]
TTITLE5=Χατζής Κώστας - Γιατί [Κ. Χατζής-Σώτια Σώτου]
TTITLE6=Χατζής Κώστας - Δε θέλω γράμμα [Κ. Χατζής-Φώντας Φιλέρης]
TTITLE7=Χατζής Κώστας - Ας τραγουδήσουμε απαλά [Κ. Χατζής-Σώτια Σώτου]
TTITLE8=Χατζής Κώστας - Έλα κοντά μου μιά άλλη γη να ονειρευτείς [Κ. Χατζής-Νί
TTITLE8=να Ναχμία]
TTITLE9=Χατζής Κώστας - Τώρα που μεγάλωσα [Κ. Χατζής-Σώτια Σώτου]
TTITLE10=Χατζής Κώστας - Θυμάμαι [Κ. Χατζής-Μαν. Κουφιανάκης]
TTITLE11=Χατζής Κώστας - Γύρω σκοτάδι [Κ. Χατζής-Μαν. Κουφιανάκης]
TTITLE12=Χατζής Κώστας - Πάλι ύπνος δεν με πιάνει  [Κ. Χατζής-Σώτια Σώτου]
TTITLE13=Χατζής Κώστας - Ζητείται φίλος [Κ. Χατζής-Φώντας Φιλέρης]
TTITLE14=Χατζής Κώστας - Σ' αυτή την πόλη [Κ. Χατζής-Λ. Παπαδόπουλος]
TTITLE15=Χατζής Κώστας - Τα καρφιά [Κ. Χατζής]
TTITLE16=Χατζής Κώστας - Μη μάς περιφρονάς (Εμείς οι ταπεινοί)[Κ. Χατζής-Σώτια
TTITLE16=Σώτου]
TTITLE17=Χατζής Κώστας - Αμήν  [Κ. Χατζής-Σώτια Σώτου]
TTITLE18=Χατζής Κώστας - Η γη ακόμα ζει [Κ. Χατζής-Σώτια Σώτου]
TTITLE19=Χατζής Κώστας - Είμαι ένας άνθρωπος απλός  [Κ. Χατζής-Σώτια Σώτου]
TTITLE20=Χατζής Κώστας - Παράλληλοι βίοι [Κ. Χατζής-Φώντας Φιλέρης]
TTITLE21=Χατζίδη Αντωνία - Μικρή ζωή [Κ. Χατζής-Σώτια Σώτου]
TTITLE22=Χατζής Κώστας - Φιλί φιλί [Κ. Χατζής-Σώτια Σώτου]
TTITLE23=Χατζής Κώστας - Δεν είναι που δε σ' αγαπώ [Κ. Χατζής-Λιάνα Βιτσιώρη]
TTITLE24=Χατζής Κώστας-Χατζίδη Αντωνία - Αντίο [Κ. Χατζής-Σώτια Σώτου]
TTITLE25=Χατζίδη Αντωνία - Τριγύρω τοίχοι και σιωπή [Κ. Χατζής-Χριστόφ. Μπαλαμ
TTITLE25=πανίδης]
TTITLE26=Χατζής Κώστας - Στάσου, πού πας [Κ. Χατζής-Σώτια Σώτου]
TTITLE27=Χατζίδη Αντωνία - Αυτή η γη δεν μάς αξίζει [Κ. Χατζής-Φώντας Φιλέρης]
TTITLE28=Χατζής Κώστας - Αν ερχόσουν [Κ. Χατζής-Σώτια Σώτου]
TTITLE29=Χατζίδη Αντωνία - Κι όμως ζω και υπομένω [Κ. Χατζής-Μαν. Κουφιανάκης]
TTITLE30=Χατζής Κώστας - Μάννα μου [Κ. Χατζής-Νίνα Ναχμία]
TTITLE31=Χατζής Κώστας - Άκου τι μού 'πανε [Κ. Χατζής-Δημ. Λεοντάρης]
TTITLE32=Χατζής Κώστας - Έφυγε για πάντα ο φίλος [Κ. Χατζής-Νίνα Ναχμία]
TTITLE33=Χατζής Κώστας - Τα βράδια που ονειρεύονται οι τσιγγάνοι [Κ. Χατζής-Σα
TTITLE33=ρ. Αλιβιζάτος]
TTITLE34=Χατζής Κώστας - Από πότε οι θεοί κατεβαίνουν στη γη [Κ. Χατζής-Δημ. Λ
TTITLE34=εοντάρης]
TTITLE35=Χατζής Κώστας - Ξαναπυροβόλησε [Κ. Χατζής-Δημ. Λεοντάρης]
TTITLE36=Χατζής Κώστας - Χρώμα μπλε τα όνειρά μου [Κ. Χατζής-Νίνα Ναχμία]
TTITLE37=Χατζής Κώστας - Να σού πω, Μαρία [Κ. Χατζής-Δημ. Λεοντάρης]
EXTD=
EXTT0=
EXTT1=
EXTT2=
EXTT3=
EXTT4=
EXTT5=
EXTT6=
EXTT7=
EXTT8=
EXTT9=
EXTT10=
EXTT11=
EXTT12=
EXTT13=
EXTT14=
EXTT15=
EXTT16=
EXTT17=
EXTT18=
EXTT19=
EXTT20=
EXTT21=
EXTT22=
EXTT23=
EXTT24=
EXTT25=
EXTT26=
EXTT27=
EXTT28=
EXTT29=
EXTT30=
EXTT31=
EXTT32=
EXTT33=
EXTT34=
EXTT35=
EXTT36=
EXTT37=
PLAYORDER=
